<?xml version="1.0" standalone="no"?>
<!DOCTYPE svg PUBLIC "-//W3C//DTD SVG 20010904//EN"
 "http://www.w3.org/TR/2001/REC-SVG-20010904/DTD/svg10.dtd">
<svg version="1.0" xmlns="http://www.w3.org/2000/svg"
 width="251.000000pt" height="247.000000pt" viewBox="0 0 251.000000 247.000000"
 preserveAspectRatio="xMidYMid meet">

<g transform="translate(0.000000,247.000000) scale(0.100000,-0.100000)"
fill="#00fff7" stroke="none">
<path d="M1193 1601 c-224 -57 -381 -297 -344 -523 42 -257 282 -433 534 -390
308 53 479 380 345 661 -42 89 -131 177 -223 221 -64 31 -80 34 -175 36 -58 2
-119 -1 -137 -5z m256 -286 c45 -52 42 -88 -11 -142 -23 -24 -49 -43 -58 -43
-21 0 -40 20 -40 42 0 24 -21 23 -54 -3 -39 -31 -58 -74 -65 -152 -7 -77 -25
-102 -58 -81 -25 16 -30 145 -8 197 23 56 79 112 135 136 44 19 50 25 50 52 0
22 6 32 23 38 28 11 46 1 86 -44z"/>
</g>
</svg>
