<?xml version="1.0" standalone="no"?>
<!DOCTYPE svg PUBLIC "-//W3C//DTD SVG 20010904//EN"
 "http://www.w3.org/TR/2001/REC-SVG-20010904/DTD/svg10.dtd">
<svg version="1.0" xmlns="http://www.w3.org/2000/svg"
 width="2791.000000pt" height="674.000000pt" viewBox="0 0 2791.000000 674.000000"
 preserveAspectRatio="xMidYMid meet">

<g transform="translate(0.000000,674.000000) scale(0.100000,-0.100000)"
fill="#000000" stroke="none">
<path d="M6515 6389 c-119 -11 -163 -23 -263 -69 -103 -48 -203 -143 -245
-234 -58 -122 -59 -131 -55 -810 3 -442 8 -638 17 -681 54 -263 71 -329 118
-443 53 -133 96 -209 241 -426 72 -110 132 -203 132 -207 0 -4 4 -9 9 -11 4
-1 23 -30 41 -63 18 -33 36 -62 39 -65 14 -11 93 -180 127 -270 57 -153 114
-391 141 -595 13 -97 17 -252 20 -807 5 -785 7 -763 -72 -847 l-44 -46 -94 0
c-88 0 -96 2 -131 29 -23 17 -49 51 -65 85 l-26 56 -3 1027 -2 1028 -80 0
c-77 0 -80 1 -80 23 0 13 -6 46 -14 73 -7 27 -21 83 -31 124 -32 142 -83 308
-115 369 -10 21 -35 52 -55 69 -31 28 -43 32 -90 32 -60 0 -97 -23 -133 -83
-21 -34 -73 -181 -92 -257 -7 -25 -18 -70 -25 -100 -8 -30 -33 -128 -56 -218
-39 -151 -43 -161 -54 -135 -7 15 -15 46 -19 68 -4 22 -13 67 -21 100 -7 33
-28 132 -45 220 -17 88 -37 189 -45 225 -7 36 -23 112 -35 170 -26 124 -67
274 -86 311 -29 57 -64 88 -107 94 -99 15 -153 -45 -202 -227 -30 -109 -56
-257 -98 -553 -9 -60 -23 -155 -32 -210 -8 -55 -20 -134 -25 -175 -6 -41 -17
-118 -25 -170 -8 -52 -17 -116 -20 -142 -3 -26 -10 -50 -15 -53 -9 -6 -16 42
-26 180 -3 50 -8 104 -10 121 -5 46 -34 346 -44 464 -5 58 -16 179 -24 270 -9
91 -20 217 -26 280 -6 63 -18 174 -26 245 -8 72 -17 153 -20 180 -10 98 -37
231 -57 273 -32 71 -115 95 -172 50 -63 -49 -93 -192 -141 -673 -27 -267 -43
-427 -58 -570 -8 -77 -19 -187 -25 -245 -11 -116 -13 -130 -35 -345 -27 -265
-33 -316 -38 -321 -3 -2 -8 28 -11 68 -9 99 -33 368 -52 568 -9 91 -22 235
-30 320 -20 222 -44 481 -60 660 -26 283 -36 374 -56 495 -20 125 -54 217 -86
233 -38 20 -85 22 -118 6 -85 -40 -108 -172 -199 -1149 -15 -156 -49 -515 -66
-705 -5 -52 -14 -133 -20 -180 -5 -47 -11 -94 -11 -105 -1 -11 -5 9 -9 45 -4
36 -17 133 -29 215 -11 83 -26 188 -31 234 -17 133 -51 337 -95 551 -51 252
-109 370 -190 386 -71 13 -125 -20 -158 -96 -19 -45 -52 -187 -72 -315 -9 -55
-20 -122 -25 -150 -6 -27 -24 -135 -41 -240 -43 -272 -82 -436 -119 -505 -11
-21 -12 -20 -39 14 -23 29 -144 262 -171 331 -58 145 -101 199 -192 245 l-61
30 -679 0 -679 0 -24 -25 c-40 -39 -31 -109 18 -137 17 -10 172 -14 672 -18
l650 -5 31 -22 c24 -17 44 -52 84 -145 129 -303 215 -432 315 -479 105 -49
194 1 260 145 36 76 75 212 75 257 0 15 4 30 9 33 4 3 11 25 14 48 5 43 45
281 72 433 7 44 19 113 26 153 7 42 16 68 20 60 15 -27 73 -361 104 -593 8
-60 21 -159 30 -220 9 -60 20 -150 25 -200 5 -49 14 -121 19 -160 6 -38 13
-101 16 -140 3 -38 13 -110 21 -160 34 -197 62 -245 143 -245 109 0 132 54
180 425 11 83 22 179 26 215 3 36 10 103 16 150 5 47 14 132 19 190 28 317 41
448 45 475 3 17 10 84 15 150 17 211 55 571 59 550 2 -17 30 -322 41 -450 6
-66 15 -163 20 -215 5 -52 16 -171 25 -265 8 -93 22 -242 30 -330 8 -88 22
-243 30 -345 9 -102 20 -205 25 -230 5 -25 11 -79 15 -120 8 -100 41 -263 61
-306 36 -77 122 -99 183 -48 53 44 93 230 131 604 18 179 51 505 61 595 5 50
18 178 29 285 11 107 24 242 31 300 6 58 16 159 23 225 l12 120 13 -105 c13
-105 32 -310 51 -555 5 -71 12 -143 15 -160 4 -16 13 -106 21 -200 42 -472 56
-588 88 -755 28 -149 72 -210 151 -210 78 0 120 55 149 195 31 151 36 180 56
330 11 83 23 161 25 175 3 14 12 70 20 125 33 229 46 317 65 445 11 74 25 167
30 205 9 63 30 177 47 260 4 22 17 -26 50 -185 72 -354 114 -562 124 -608 13
-66 57 -205 77 -244 51 -103 128 -141 205 -101 70 35 105 114 177 398 23 88
54 210 70 270 31 122 39 145 49 145 8 0 79 -267 98 -372 5 -27 4 -28 -43 -28
l-49 0 2 -1012 c2 -686 6 -1035 14 -1081 13 -82 71 -201 128 -268 47 -54 158
-132 221 -154 177 -63 492 -57 648 11 156 69 291 234 325 399 18 89 17 1659
-1 1805 -46 363 -158 628 -427 1006 -175 244 -269 421 -340 639 -99 299 -118
485 -113 1095 l3 425 27 55 c37 75 90 105 186 105 37 0 78 -3 92 -7 34 -10 83
-55 106 -98 18 -33 19 -73 24 -840 l5 -805 225 0 225 0 0 795 c0 720 -2 801
-17 862 -23 89 -49 143 -99 203 -137 166 -367 240 -664 214z"/>
<path d="M14667 6342 c-17 -3 -18 -11 -13 -75 6 -74 28 -436 46 -752 13 -233
27 -471 45 -775 8 -135 26 -443 40 -685 14 -242 32 -550 40 -685 8 -135 19
-324 25 -420 36 -615 62 -1048 70 -1200 6 -96 14 -247 19 -335 5 -88 17 -290
26 -450 9 -159 18 -309 21 -332 l5 -43 224 0 224 0 5 42 c3 24 15 180 26 348
33 500 40 608 50 750 5 74 16 239 25 365 8 127 19 291 25 365 6 74 22 302 35
505 39 579 91 1350 120 1750 39 543 45 634 45 665 0 18 2 31 4 29 3 -2 14
-137 25 -299 12 -162 25 -357 31 -432 24 -323 31 -432 55 -778 14 -201 30
-430 35 -510 6 -80 24 -345 40 -590 17 -245 35 -510 40 -590 10 -140 28 -406
70 -1035 11 -165 25 -361 30 -435 5 -74 10 -138 10 -143 0 -4 102 -6 228 -5
l227 3 7 115 c4 63 21 354 38 645 16 292 34 602 40 690 5 88 14 243 20 345 6
102 15 257 20 345 6 88 24 392 40 675 16 283 39 668 50 855 11 187 25 421 30
520 6 99 15 250 20 335 43 703 71 1213 65 1218 -9 10 -432 9 -441 -1 -4 -4
-11 -135 -15 -290 -8 -275 -19 -686 -39 -1392 -6 -192 -15 -524 -20 -736 -6
-212 -17 -608 -25 -880 -8 -272 -15 -532 -15 -578 0 -46 -2 -82 -4 -80 -2 2
-9 67 -15 144 -14 183 -56 689 -81 980 -10 127 -26 318 -35 425 -8 107 -22
269 -30 360 -8 91 -26 307 -40 480 -14 173 -32 392 -40 485 -8 94 -31 366 -50
605 -20 239 -38 447 -41 463 l-6 27 -212 0 c-116 -1 -217 -5 -225 -9 -12 -8
-75 -717 -195 -2191 -34 -422 -87 -1056 -101 -1210 -8 -91 -20 -235 -26 -320
-7 -85 -15 -161 -19 -168 -4 -8 -10 111 -14 265 -3 153 -11 422 -16 598 -5
176 -14 489 -20 695 -18 660 -30 1086 -40 1440 -5 190 -13 467 -16 616 l-7
272 -59 6 c-60 7 -348 6 -381 -2z"/>
<path d="M8155 5735 c-234 -53 -399 -164 -476 -322 l-34 -68 0 -2200 0 -2200
26 -55 c81 -170 217 -274 433 -332 110 -30 345 -32 456 -4 221 55 366 188 415
382 14 54 15 305 12 2235 -2 2072 -3 2176 -20 2219 -74 183 -205 289 -420 339
-104 25 -295 27 -392 6z m284 -330 c38 -19 54 -35 72 -72 l24 -48 0 -2140 0
-2140 -25 -45 c-86 -153 -362 -107 -407 68 -17 64 -19 4176 -2 4237 14 51 91
127 150 148 67 24 132 21 188 -8z"/>
<path d="M9463 5703 c-17 -6 -19 -4667 -2 -4758 22 -121 110 -246 220 -313
164 -100 434 -122 654 -54 34 10 129 57 153 75 49 37 121 121 144 170 62 125
58 -50 58 2524 l0 2352 -32 6 c-18 3 -121 5 -228 3 l-195 -3 -5 -2365 c-5
-2172 -6 -2367 -21 -2395 -62 -112 -225 -109 -282 5 l-22 45 -3 2353 c-1 1293
-6 2353 -10 2353 -23 4 -419 6 -429 2z"/>
<path d="M11153 5703 c-10 -4 -13 -525 -13 -2559 l0 -2554 200 0 200 0 2 1468
3 1467 23 -110 c13 -60 30 -141 37 -180 8 -38 37 -180 65 -315 28 -135 73
-351 100 -480 26 -129 69 -336 95 -460 25 -124 59 -288 75 -365 16 -77 52
-250 80 -385 29 -135 58 -276 65 -315 7 -38 25 -124 39 -190 14 -66 26 -123
26 -127 0 -5 79 -8 175 -8 l175 0 0 2554 c0 2405 -1 2554 -17 2560 -19 8 -351
6 -370 -1 -10 -4 -13 -318 -14 -1522 l-1 -1516 -119 590 c-114 567 -169 840
-229 1140 -98 497 -263 1301 -267 1305 -6 6 -314 9 -330 3z"/>
<path d="M12957 5703 c-4 -3 -7 -1156 -7 -2561 l0 -2555 413 6 c296 4 440 10
513 21 159 24 246 59 321 129 63 59 91 124 103 237 13 130 13 4270 0 4365 -13
91 -50 164 -108 216 -115 102 -237 125 -712 139 -376 11 -515 12 -523 3z m845
-348 c20 -10 39 -27 42 -39 3 -12 6 -992 6 -2178 0 -1951 -2 -2158 -16 -2172
-8 -9 -25 -21 -35 -27 -22 -11 -212 -28 -321 -29 l-68 0 0 2236 0 2236 178 -4
c144 -4 184 -8 214 -23z"/>
<path d="M17588 5703 c-10 -2 -18 -8 -18 -12 0 -4 -9 -106 -20 -227 -11 -120
-26 -300 -35 -399 -8 -99 -20 -227 -25 -285 -6 -58 -22 -233 -35 -390 -14
-157 -34 -388 -45 -515 -11 -126 -25 -282 -30 -345 -5 -63 -32 -369 -59 -680
-28 -311 -55 -619 -61 -685 -6 -66 -17 -194 -25 -285 -8 -91 -21 -244 -30
-340 -8 -96 -26 -301 -40 -455 -14 -154 -27 -311 -30 -350 -3 -38 -8 -87 -11
-107 l-6 -38 229 0 229 0 12 183 c6 100 21 347 34 550 l22 367 152 0 152 0 6
-73 c4 -39 18 -254 31 -477 13 -223 27 -438 31 -478 l6 -72 224 0 224 0 0 33
c0 17 -9 133 -20 257 -24 263 -31 350 -59 680 -12 135 -25 288 -31 340 -5 52
-17 178 -25 280 -15 175 -22 253 -45 515 -5 61 -19 216 -30 345 -11 129 -27
307 -35 395 -8 88 -31 345 -50 570 -30 342 -78 889 -124 1420 -6 61 -13 147
-17 192 -3 47 -11 83 -17 86 -17 6 -408 6 -429 0z m231 -1533 c7 -129 16 -320
21 -425 6 -104 14 -282 20 -395 17 -355 29 -599 40 -795 5 -104 13 -261 17
-347 l6 -158 -126 0 -127 0 0 28 c0 15 7 151 15 302 19 340 104 2030 106 2085
3 90 17 -62 28 -295z"/>
<path d="M18712 5704 c-9 -4 -11 -20 -7 -52 3 -26 10 -119 15 -207 11 -178 44
-688 60 -920 19 -286 50 -761 70 -1065 11 -168 24 -372 30 -455 5 -82 14 -224
20 -315 6 -91 15 -228 20 -304 6 -77 19 -277 30 -445 33 -518 39 -606 60 -916
11 -165 22 -330 26 -368 l6 -67 279 0 c215 0 281 3 284 12 3 12 33 441 55 803
11 171 60 926 90 1370 11 165 27 406 35 535 9 129 29 438 46 685 16 248 41
621 54 830 13 209 32 489 41 623 9 134 13 246 9 250 -9 9 -431 9 -440 0 -7 -7
-10 -56 -40 -678 -8 -179 -20 -415 -25 -525 -50 -999 -56 -1170 -80 -2230 -11
-500 -21 -923 -23 -940 -1 -16 -8 186 -15 450 -34 1282 -49 1799 -62 2015 -5
91 -14 262 -20 380 -5 118 -15 305 -20 415 -5 110 -19 405 -31 655 -12 250
-23 457 -25 459 -7 7 -427 11 -442 5z"/>
<path d="M20293 5704 c-10 -5 -13 -526 -13 -2560 l0 -2554 450 -2 449 -3 3
163 3 162 -222 0 c-236 0 -225 -2 -225 45 0 8 0 503 1 1100 l1 1085 205 0 205
0 0 -32 c0 -18 10 -67 21 -108 11 -41 38 -147 60 -235 22 -88 44 -168 49 -177
6 -10 10 -23 10 -30 0 -7 21 -78 47 -157 51 -156 84 -213 143 -244 75 -39 174
1 222 89 44 83 104 282 137 464 17 89 79 399 95 470 8 36 27 125 42 199 24
111 30 129 36 105 14 -50 37 -166 47 -244 12 -84 28 -185 42 -275 6 -33 14
-92 19 -130 8 -64 25 -180 51 -350 9 -62 16 -109 43 -300 40 -284 65 -428 91
-531 38 -149 77 -194 167 -194 156 0 195 155 284 1140 17 190 30 333 44 475 6
55 17 177 25 270 8 94 19 221 24 282 14 159 26 170 35 33 3 -62 11 -145 16
-184 5 -39 14 -118 20 -176 6 -58 15 -143 20 -190 17 -158 30 -284 45 -440 22
-221 34 -343 45 -435 5 -44 14 -134 20 -200 24 -267 79 -600 112 -676 29 -68
68 -99 124 -99 112 0 153 70 193 325 26 161 41 285 41 329 0 26 4 77 10 114 5
37 17 148 25 247 9 99 23 254 31 345 8 91 19 217 24 280 10 111 21 233 40 425
5 50 14 149 20 220 5 72 15 173 20 225 5 52 13 127 16 165 8 89 19 64 28 -65
4 -52 11 -135 16 -185 5 -49 14 -142 20 -205 6 -63 15 -158 20 -210 6 -52 20
-194 31 -315 11 -121 24 -260 29 -310 5 -49 14 -137 19 -195 6 -58 18 -168 26
-245 9 -77 20 -176 25 -220 8 -80 32 -234 50 -332 13 -73 54 -149 90 -168 16
-8 50 -15 76 -15 42 0 51 4 85 39 31 34 40 54 57 128 27 119 47 261 77 553 8
80 19 177 25 215 5 39 21 156 35 260 28 212 42 306 55 380 5 28 14 77 19 110
29 174 65 345 71 338 4 -4 33 -163 64 -353 31 -190 60 -363 65 -385 5 -22 15
-67 21 -100 58 -291 151 -471 258 -503 78 -24 136 -10 207 49 91 75 196 253
305 514 23 55 47 111 53 123 17 35 62 70 105 82 24 6 297 10 770 10 667 0 736
2 762 17 59 34 68 113 19 162 l-31 31 -796 -2 -797 -3 -60 -28 c-72 -34 -177
-138 -196 -194 -16 -50 -102 -246 -132 -303 -90 -168 -122 -220 -138 -220 -9
0 -36 68 -65 165 -20 67 -56 240 -78 375 -3 19 -12 76 -20 125 -8 50 -33 198
-55 330 -79 461 -105 530 -216 555 -148 33 -227 -107 -315 -565 -4 -22 -17
-101 -29 -175 -12 -74 -26 -149 -32 -166 -5 -17 -9 -44 -9 -61 0 -16 -4 -54
-10 -84 -5 -30 -21 -146 -35 -259 -29 -236 -45 -343 -51 -338 -5 6 -34 270
-54 493 -10 108 -33 361 -45 480 -21 222 -27 280 -35 360 -6 50 -17 171 -25
270 -14 169 -21 229 -46 415 -38 286 -64 391 -110 438 -59 61 -164 49 -209
-22 -43 -71 -91 -348 -121 -701 -5 -71 -14 -170 -19 -220 -23 -233 -32 -333
-45 -490 -8 -93 -20 -217 -25 -275 -15 -147 -39 -413 -50 -550 -5 -63 -14
-160 -20 -215 -5 -55 -13 -135 -16 -178 -8 -87 -18 -84 -27 8 -3 33 -15 152
-27 265 -11 113 -27 270 -36 350 -8 80 -19 188 -24 240 -6 52 -15 136 -20 185
-5 50 -16 160 -25 245 -8 85 -20 198 -25 250 -5 52 -14 138 -20 190 -5 52 -14
138 -20 190 -14 141 -58 385 -80 442 -33 88 -104 125 -184 97 -63 -22 -82 -59
-117 -218 -14 -69 -51 -382 -79 -681 -6 -63 -15 -158 -21 -210 -5 -52 -14
-151 -20 -220 -5 -69 -14 -165 -19 -215 -5 -49 -13 -139 -19 -200 -9 -98 -22
-232 -36 -380 -3 -27 -10 -106 -15 -175 -16 -180 -26 -181 -50 -5 -6 44 -15
107 -20 140 -5 33 -14 92 -20 130 -6 39 -20 135 -31 215 -32 226 -37 256 -59
405 -91 611 -155 775 -304 775 -49 0 -106 -31 -133 -72 -44 -67 -96 -258 -162
-598 -16 -80 -31 -156 -34 -170 -65 -331 -117 -559 -128 -565 -10 -7 -18 21
-80 265 -122 485 -166 600 -255 660 l-45 30 -215 0 -214 0 0 955 0 955 220 0
220 0 -2 163 -3 162 -435 2 c-239 1 -441 -1 -447 -3z"/>
</g>
</svg>
